<?xml version="1.0" encoding="UTF-8"?>
<svg version="1.1" xmlns="http://www.w3.org/2000/svg" width="500" height="500">
<path d="M0 0 C165 0 330 0 500 0 C500 165 500 330 500 500 C335 500 170 500 0 500 C0 335 0 170 0 0 Z " fill="#FEFEFE" transform="translate(0,0)"/>
<path d="M0 0 C1.92904678 -0.01469078 1.92904678 -0.01469078 3.89706421 -0.02967834 C8.05376302 -0.05711103 12.21040746 -0.06837799 16.3671875 -0.07421875 C17.43215958 -0.07594463 17.43215958 -0.07594463 18.51864624 -0.07770538 C54.70680875 -0.11840093 89.82186002 2.63723894 125.2421875 10.23828125 C127.13650807 10.62862799 129.0310209 11.01804358 130.92578125 11.40625 C138.00208402 12.89296619 144.41906688 14.67961102 151.2421875 17.23828125 C151.2421875 42.64828125 151.2421875 68.05828125 151.2421875 94.23828125 C149.01760004 92.01369379 147.05393516 89.83342629 145.0546875 87.42578125 C119.61941407 58.51488039 69.73463148 56.08807927 34.1640625 53.80957031 C-9.13485563 49.9434027 -9.13485563 49.9434027 -48.7578125 63.23828125 C-52.70309764 66.81153292 -54.60658647 70.14838707 -54.99609375 75.53125 C-55.43856466 86.11625642 -55.43856466 86.11625642 -50.7578125 95.23828125 C-42.83278068 102.148909 -33.1596058 104.36891481 -23.0703125 106.30078125 C-22.19383057 106.472146 -21.31734863 106.64351074 -20.41430664 106.82006836 C-14.41701902 107.97248402 -8.41332442 108.9379553 -2.359375 109.74609375 C1.91383972 110.33006886 6.17064962 110.99714098 10.4296875 111.67578125 C11.232854 111.803479 12.03602051 111.93117676 12.86352539 112.06274414 C14.50460406 112.32392507 16.14563568 112.58540176 17.78662109 112.84716797 C20.98242683 113.35618376 24.17891172 113.86084105 27.37548828 114.36499023 C28.96375219 114.61550143 30.55196776 114.8663192 32.14013672 115.11743164 C35.96130691 115.72157384 39.78282159 116.32323898 43.60546875 116.91796875 C47.51465464 117.5272094 51.42201585 118.14733227 55.32861328 118.77294922 C57.47246422 119.1153474 59.61673265 119.45513401 61.76123047 119.79345703 C114.90731076 128.20853607 114.90731076 128.20853607 135.2421875 144.23828125 C136.56089844 145.26888672 136.56089844 145.26888672 137.90625 146.3203125 C151.89065754 158.04440039 158.24768341 173.44030911 160.2421875 191.23828125 C160.51645649 195.72225277 160.57691196 200.18418572 160.5546875 204.67578125 C160.54977295 205.85793213 160.5448584 207.04008301 160.53979492 208.25805664 C160.27003152 228.33260403 154.10353163 246.16693556 140.1171875 260.92578125 C118.86396871 281.25368984 89.30402114 286.7517596 61.2421875 290.23828125 C59.94337646 290.41552734 58.64456543 290.59277344 57.30639648 290.77539062 C50.5680361 291.50934714 43.79768777 291.42348947 37.02734375 291.44140625 C36.29472258 291.44423363 35.5621014 291.447061 34.80727959 291.44997406 C30.90366138 291.4649274 27.00007952 291.4741721 23.09643555 291.47851562 C19.94657388 291.48283533 16.79699623 291.49647356 13.6472168 291.51953125 C-7.41347482 291.67057881 -28.11121661 290.80116009 -49.06340027 288.62091064 C-53.82721887 288.12752309 -58.5948015 287.67816311 -63.36308289 287.2303009 C-74.34886309 286.14492233 -85.17541162 284.39178621 -96.0078125 282.30078125 C-97.25651123 282.05996826 -98.50520996 281.81915527 -99.79174805 281.57104492 C-121.98490584 277.12473458 -121.98490584 277.12473458 -127.7578125 274.23828125 C-127.7578125 249.15828125 -127.7578125 224.07828125 -127.7578125 198.23828125 C-125.2828125 200.71328125 -125.2828125 200.71328125 -122.7578125 203.23828125 C-91.86323089 234.01002158 -38.05293611 237.61730195 3.2421875 238.23828125 C4.57812927 238.26410312 5.91406646 238.29016247 7.25 238.31640625 C46.05682495 240.24766716 46.05682495 240.24766716 80.8671875 225.92578125 C87.09833995 219.74811509 88.56904136 213.71180576 88.6796875 205.05078125 C88.69 204.37345947 88.7003125 203.6961377 88.7109375 202.99829102 C88.60511519 197.00683737 86.85131779 193.06486158 82.9296875 188.61328125 C77.8024955 184.08227436 72.64022994 181.29135197 66.1171875 179.30078125 C65.29114014 179.04844727 64.46509277 178.79611328 63.61401367 178.53613281 C52.16429726 175.32380368 40.3009212 174.08116636 28.53033447 172.59828186 C27.79200378 172.50526291 27.0536731 172.41224396 26.29296875 172.31640625 C25.20456696 172.17983864 25.20456696 172.17983864 24.09417725 172.04051208 C19.77374982 171.48340896 15.58451887 170.72916576 11.35620117 169.69824219 C6.87326308 168.72285757 2.29372407 168.28255172 -2.2578125 167.73828125 C-8.42798999 167.00045451 -14.44728167 166.14409223 -20.49707031 164.72021484 C-24.75140629 163.813297 -29.06961533 163.34197079 -33.3828125 162.80078125 C-42.27427091 161.62689854 -51.00944876 160.24387086 -59.7578125 158.23828125 C-60.49064453 158.07634277 -61.22347656 157.9144043 -61.97851562 157.74755859 C-77.92464812 154.17057817 -91.77340172 148.31860016 -104.7578125 138.23828125 C-105.59054688 137.60277344 -106.42328125 136.96726563 -107.28125 136.3125 C-118.53473323 126.88726404 -125.88427878 111.33677912 -127.55493164 96.8190918 C-127.96616031 91.5879266 -128.022311 86.34964525 -128.05297852 81.10424805 C-128.06445984 79.74411585 -128.0848508 78.38402735 -128.11450195 77.02416992 C-128.48034095 60.16083165 -123.67785083 43.63250303 -111.8046875 31.12890625 C-98.52449471 18.86246863 -83.02143595 11.91720723 -65.7578125 7.23828125 C-64.77425781 6.95339844 -63.79070312 6.66851562 -62.77734375 6.375 C-42.72592501 1.09831086 -20.64170041 0.13075365 0 0 Z " fill="#010101" transform="translate(235.7578125,81.76171875)"/>
</svg>
